<?xml version="1.0" encoding="UTF-8" standalone="no"?>
<!-- Created with Inkscape (http://www.inkscape.org/) -->

<svg
   xmlns:osb="http://www.openswatchbook.org/uri/2009/osb"
   xmlns:dc="http://purl.org/dc/elements/1.1/"
   xmlns:cc="http://creativecommons.org/ns#"
   xmlns:rdf="http://www.w3.org/1999/02/22-rdf-syntax-ns#"
   xmlns:svg="http://www.w3.org/2000/svg"
   xmlns="http://www.w3.org/2000/svg"
   xmlns:sodipodi="http://sodipodi.sourceforge.net/DTD/sodipodi-0.dtd"
   xmlns:inkscape="http://www.inkscape.org/namespaces/inkscape"
   width="72mm"
   height="72mm"
   viewBox="0 0 72 72"
   version="1.1"
   id="svg8"
   sodipodi:docname="3.svg"
   inkscape:version="0.92.1 r15371">
  <defs
     id="defs2">
    <linearGradient
       id="linearGradient4493"
       osb:paint="solid">
      <stop
         style="stop-color:#000000;stop-opacity:1;"
         offset="0"
         id="stop4491" />
    </linearGradient>
  </defs>
  <sodipodi:namedview
     id="base"
     pagecolor="#ffffff"
     bordercolor="#666666"
     borderopacity="1.0"
     inkscape:pageopacity="0.0"
     inkscape:pageshadow="2"
     inkscape:zoom="1.979899"
     inkscape:cx="177.9372"
     inkscape:cy="135.73946"
     inkscape:document-units="mm"
     inkscape:current-layer="layer1"
     showgrid="false"
     inkscape:window-width="1854"
     inkscape:window-height="1057"
     inkscape:window-x="1738"
     inkscape:window-y="-8"
     inkscape:window-maximized="1"
     inkscape:pagecheckerboard="true" />
  <metadata
     id="metadata5">
    <rdf:RDF>
      <cc:Work
         rdf:about="">
        <dc:format>image/svg+xml</dc:format>
        <dc:type
           rdf:resource="http://purl.org/dc/dcmitype/StillImage" />
        <dc:title></dc:title>
      </cc:Work>
    </rdf:RDF>
  </metadata>
  <g
     inkscape:label="Layer 1"
     inkscape:groupmode="layer"
     id="layer1"
     transform="translate(0,-225)">
    <path
       style="opacity:1;fill:#020401;fill-opacity:1;fill-rule:nonzero;stroke:none;stroke-width:40;stroke-linecap:round;stroke-linejoin:round;stroke-miterlimit:4;stroke-dasharray:none;stroke-dashoffset:30.23622131;stroke-opacity:1"
       d="m 75.589844,15.117188 c -33.501733,0 -60.472656,26.970923 -60.472656,60.472656 V 196.53516 c -1e-6,33.50173 26.970923,60.47265 60.472656,60.47265 H 196.53516 c 33.50173,0 60.47265,-26.97092 60.47265,-60.47265 V 75.589844 c 0,-33.501733 -26.97092,-60.472656 -60.47265,-60.472656 z m 57.835936,30.066406 c 7.89063,0 14.76563,0.820312 20.625,2.460937 5.9375,1.5625 11.28906,4.023438 16.05469,7.382813 5.15625,3.75 9.02344,8.28125 11.60156,13.59375 2.65625,5.3125 3.98438,11.523437 3.98438,18.632812 0,9.609375 -3.16407,18.046874 -9.49219,25.312504 -6.32813,7.26562 -13.90625,11.875 -22.73438,13.82812 v 1.64063 c 3.67188,0.70312 7.57813,1.91406 11.71875,3.63281 4.21875,1.71875 8.125,4.25781 11.71875,7.61719 3.59375,3.35937 6.52344,7.69531 8.78907,13.00781 2.26562,5.23437 3.39843,11.64062 3.39843,19.21875 0,7.89062 -1.36718,15.15625 -4.10156,21.79687 -2.65625,6.5625 -6.44531,12.38282 -11.36719,17.46094 -5.07812,5.3125 -11.21093,9.33594 -18.39843,12.07031 -7.1875,2.73438 -15.35157,4.10157 -24.49219,4.10157 -8.75,0 -17.42188,-1.05469 -26.01563,-3.16407 -8.593746,-2.10937 -15.820309,-4.64843 -21.679684,-7.61718 v -24.72657 h 1.640625 c 4.921875,3.59375 11.523438,7.03125 19.804689,10.3125 8.28125,3.28125 16.5625,4.92188 24.84375,4.92188 4.76562,0 9.53125,-0.74219 14.29687,-2.22656 4.84375,-1.5625 8.86719,-4.0625 12.07032,-7.5 3.125,-3.4375 5.50781,-7.22657 7.14843,-11.36719 1.64063,-4.14063 2.46094,-9.375 2.46094,-15.70313 0,-6.32812 -0.9375,-11.52343 -2.8125,-15.58593 -1.79687,-4.0625 -4.33594,-7.26563 -7.61719,-9.60938 -3.28125,-2.34375 -7.1875,-3.94531 -11.71875,-4.80469 -4.45312,-0.9375 -9.29687,-1.40625 -14.53125,-1.40625 h -9.96093 v -19.45312 h 7.73437 c 10.54688,0 19.10156,-2.5 25.66406,-7.5 6.64063,-5 9.96094,-12.265626 9.96094,-21.796876 0,-4.375 -0.85937,-8.125 -2.57812,-11.25 -1.71875,-3.203125 -3.90625,-5.742188 -6.5625,-7.617188 -2.96875,-2.03125 -6.25,-3.4375 -9.84375,-4.21875 -3.59375,-0.78125 -7.42188,-1.171875 -11.48438,-1.171875 -4.21875,0 -8.4375,0.507813 -12.65625,1.523438 -4.21875,1.015625 -8.35937,2.34375 -12.42187,3.984375 -3.75,1.5625 -7.031254,3.203125 -9.843754,4.921875 -2.734375,1.71875 -5.195312,3.320312 -7.382812,4.804687 h -1.40625 V 55.964844 c 5.078125,-2.734375 11.953125,-5.195313 20.624996,-7.382813 8.75,-2.265625 17.07032,-3.398437 24.96094,-3.398437 z"
       transform="matrix(0.26458333,0,0,0.26458333,0,225)"
       id="rect4485"
       inkscape:connector-curvature="0" />
  </g>
</svg>
