<?xml version="1.0" encoding="UTF-8" standalone="no"?>
<!-- Created with Inkscape (http://www.inkscape.org/) -->

<svg
   xmlns:osb="http://www.openswatchbook.org/uri/2009/osb"
   xmlns:dc="http://purl.org/dc/elements/1.1/"
   xmlns:cc="http://creativecommons.org/ns#"
   xmlns:rdf="http://www.w3.org/1999/02/22-rdf-syntax-ns#"
   xmlns:svg="http://www.w3.org/2000/svg"
   xmlns="http://www.w3.org/2000/svg"
   xmlns:sodipodi="http://sodipodi.sourceforge.net/DTD/sodipodi-0.dtd"
   xmlns:inkscape="http://www.inkscape.org/namespaces/inkscape"
   width="72mm"
   height="72mm"
   viewBox="0 0 72 72"
   version="1.1"
   id="svg8"
   sodipodi:docname="8.svg"
   inkscape:version="0.92.1 r15371">
  <defs
     id="defs2">
    <linearGradient
       id="linearGradient4493"
       osb:paint="solid">
      <stop
         style="stop-color:#000000;stop-opacity:1;"
         offset="0"
         id="stop4491" />
    </linearGradient>
  </defs>
  <sodipodi:namedview
     id="base"
     pagecolor="#ffffff"
     bordercolor="#666666"
     borderopacity="1.0"
     inkscape:pageopacity="0.0"
     inkscape:pageshadow="2"
     inkscape:zoom="1.979899"
     inkscape:cx="177.9372"
     inkscape:cy="135.73946"
     inkscape:document-units="mm"
     inkscape:current-layer="layer1"
     showgrid="false"
     inkscape:window-width="1854"
     inkscape:window-height="1057"
     inkscape:window-x="1738"
     inkscape:window-y="-8"
     inkscape:window-maximized="1"
     inkscape:pagecheckerboard="true" />
  <metadata
     id="metadata5">
    <rdf:RDF>
      <cc:Work
         rdf:about="">
        <dc:format>image/svg+xml</dc:format>
        <dc:type
           rdf:resource="http://purl.org/dc/dcmitype/StillImage" />
        <dc:title></dc:title>
      </cc:Work>
    </rdf:RDF>
  </metadata>
  <g
     inkscape:label="Layer 1"
     inkscape:groupmode="layer"
     id="layer1"
     transform="translate(0,-225)">
    <path
       style="opacity:1;fill:#020401;fill-opacity:1;fill-rule:nonzero;stroke:none;stroke-width:40;stroke-linecap:round;stroke-linejoin:round;stroke-miterlimit:4;stroke-dasharray:none;stroke-dashoffset:30.23622131;stroke-opacity:1"
       d="m 75.589844,15.117188 c -33.501733,0 -60.472656,26.970923 -60.472656,60.472656 V 196.53516 c -1e-6,33.50173 26.970923,60.47265 60.472656,60.47265 H 196.53516 c 33.50173,0 60.47265,-26.97092 60.47265,-60.47265 V 75.589844 c 0,-33.501733 -26.97092,-60.472656 -60.47265,-60.472656 z M 136.0625,44.832031 c 15.85938,0 28.55469,4.179688 38.08594,12.539063 9.60937,8.28125 14.41406,18.90625 14.41406,31.875 0,7.8125 -2.30469,15.546876 -6.91406,23.203126 -4.53125,7.65625 -11.09375,13.63281 -19.6875,17.92969 v 0.70312 c 10.15625,4.76563 17.85156,10.54688 23.08594,17.34375 5.23437,6.79688 7.85156,15.54688 7.85156,26.25 0,14.92188 -5.42969,27.42188 -16.28906,37.5 -10.78126,10.07813 -24.29688,15.11719 -40.54688,15.11719 -8.67188,0 -16.5625,-1.28906 -23.67188,-3.86719 -7.10937,-2.57812 -13.164058,-6.28906 -18.164058,-11.13281 -4.921874,-4.6875 -8.671874,-10.23438 -11.25,-16.64063 -2.5,-6.48437 -3.75,-13.32031 -3.75,-20.50781 0,-9.45312 2.5,-18.125 7.5,-26.01562 5.078126,-7.96875 12.421876,-14.29688 22.031248,-18.98438 v -0.70312 c -8.59375,-5 -14.960935,-10.46875 -19.10156,-16.40625 -4.140625,-5.9375 -6.210937,-13.359379 -6.210938,-22.265629 10e-7,-13.125 4.960938,-24.0625 14.882813,-32.8125 9.921875,-8.75 22.499995,-13.125 37.734375,-13.125 z m -0.11719,17.226563 c -8.51562,0 -15.50781,2.34375 -20.97656,7.03125 -5.39063,4.6875 -8.08594,11.015625 -8.08594,18.984375 0,5.78125 1.36719,10.664062 4.10157,14.648441 2.8125,3.98437 6.99218,7.57812 12.53906,10.78125 2.42187,1.32812 6.09375,3.16406 11.01562,5.50781 5,2.34375 9.53125,4.17969 13.59375,5.50781 6.79688,-5.23437 11.40625,-10.58594 13.82813,-16.05469 2.42187,-5.54687 3.63281,-11.874996 3.63281,-18.984371 0,-7.8125 -2.61719,-14.335938 -7.85156,-19.570313 -5.23438,-5.234375 -12.5,-7.851562 -21.79688,-7.851562 z m -13.125,73.945316 c -6.48437,4.29687 -11.44531,9.60937 -14.88281,15.9375 -3.4375,6.25 -5.15625,13.39843 -5.15625,21.44531 0,10.54687 3.16406,19.25781 9.49219,26.13281 6.40625,6.875 14.41406,10.3125 24.02344,10.3125 9.84374,0 17.73437,-2.92969 23.67187,-8.78906 5.9375,-5.9375 8.90625,-13.98438 8.90625,-24.14063 0,-7.1875 -1.40625,-12.89062 -4.21875,-17.10937 -2.8125,-4.21875 -8.24219,-8.51563 -16.28906,-12.89063 -2.65625,-1.48437 -6.21094,-3.08593 -10.66407,-4.80468 -4.375,-1.71875 -9.33593,-3.75 -14.88281,-6.09375 z"
       transform="matrix(0.26458333,0,0,0.26458333,0,225)"
       id="rect4485"
       inkscape:connector-curvature="0" />
  </g>
</svg>
